<svg xmlns="http://www.w3.org/2000/svg" width="960" height="540" viewBox="0 0 960 540" role="img" aria-labelledby="title desc">
  <title id="title">Index and list queries route by product id to one shard</title>
  <desc id="desc">Documents for one product sit on one shard. The receiving data node talks only to that shard. The other eleven stay idle.</desc>
  <text x="48" y="40" font-family="JetBrains Mono, ui-monospace, monospace" font-size="14" fill="#18181B">01 — LAST YEAR'S STICK</text>
  <rect x="400" y="64" width="160" height="44" fill="#FFFFFF" stroke="#E5E0DA" stroke-width="1.5"/>
  <text x="480" y="91" text-anchor="middle" font-family="JetBrains Mono, ui-monospace, monospace" font-size="12" fill="#18181B">search</text>
  <line x1="480" y1="108" x2="480" y2="128" stroke="#18181B" stroke-width="1.5"/>
  <rect x="384" y="128" width="192" height="56" fill="#FFFFFF" stroke="#E5E0DA" stroke-width="1.5"/>
  <text x="480" y="152" text-anchor="middle" font-family="JetBrains Mono, ui-monospace, monospace" font-size="12" fill="#18181B">data node</text>
  <text x="480" y="170" text-anchor="middle" font-family="JetBrains Mono, ui-monospace, monospace" font-size="12" fill="#6B6B6B">_routing = productId</text>
  <text x="480" y="214" text-anchor="middle" font-family="JetBrains Mono, ui-monospace, monospace" font-size="12" fill="#6B6B6B">12 shards</text>
  <line x1="480" y1="184" x2="160" y2="236" stroke="#B0ACA6" stroke-width="1.5"/>
  <rect x="104" y="236" width="112" height="64" fill="#F0EDE8" stroke="#E5E0DA" stroke-width="1.5"/>
  <text x="160" y="264" text-anchor="middle" font-family="JetBrains Mono, ui-monospace, monospace" font-size="12" fill="#B0ACA6">shard-0</text>
  <line x1="480" y1="184" x2="288" y2="236" stroke="#B0ACA6" stroke-width="1.5"/>
  <rect x="232" y="236" width="112" height="64" fill="#F0EDE8" stroke="#E5E0DA" stroke-width="1.5"/>
  <text x="288" y="264" text-anchor="middle" font-family="JetBrains Mono, ui-monospace, monospace" font-size="12" fill="#B0ACA6">shard-1</text>
  <line x1="480" y1="184" x2="416" y2="236" stroke="#B0ACA6" stroke-width="1.5"/>
  <rect x="360" y="236" width="112" height="64" fill="#F0EDE8" stroke="#E5E0DA" stroke-width="1.5"/>
  <text x="416" y="264" text-anchor="middle" font-family="JetBrains Mono, ui-monospace, monospace" font-size="12" fill="#B0ACA6">shard-2</text>
  <line x1="480" y1="184" x2="544" y2="236" stroke="#B0ACA6" stroke-width="1.5"/>
  <rect x="488" y="236" width="112" height="64" fill="#F0EDE8" stroke="#E5E0DA" stroke-width="1.5"/>
  <text x="544" y="264" text-anchor="middle" font-family="JetBrains Mono, ui-monospace, monospace" font-size="12" fill="#B0ACA6">shard-3</text>
  <line x1="480" y1="184" x2="672" y2="236" stroke="#D41515" stroke-width="2.5"/>
  <rect x="616" y="236" width="112" height="64" fill="#FFFFFF" stroke="#D41515" stroke-width="2.5"/>
  <text x="672" y="264" text-anchor="middle" font-family="JetBrains Mono, ui-monospace, monospace" font-size="12" fill="#18181B">shard-4</text>
  <rect x="654" y="276" width="10" height="10" fill="#18181B"/>
  <rect x="668" y="276" width="10" height="10" fill="#18181B"/>
  <rect x="682" y="276" width="10" height="10" fill="#18181B"/>
  <line x1="480" y1="184" x2="800" y2="236" stroke="#B0ACA6" stroke-width="1.5"/>
  <rect x="744" y="236" width="112" height="64" fill="#F0EDE8" stroke="#E5E0DA" stroke-width="1.5"/>
  <text x="800" y="264" text-anchor="middle" font-family="JetBrains Mono, ui-monospace, monospace" font-size="12" fill="#B0ACA6">shard-5</text>
  <line x1="480" y1="184" x2="160" y2="340" stroke="#B0ACA6" stroke-width="1.5"/>
  <rect x="104" y="340" width="112" height="64" fill="#F0EDE8" stroke="#E5E0DA" stroke-width="1.5"/>
  <text x="160" y="368" text-anchor="middle" font-family="JetBrains Mono, ui-monospace, monospace" font-size="12" fill="#B0ACA6">shard-6</text>
  <line x1="480" y1="184" x2="288" y2="340" stroke="#B0ACA6" stroke-width="1.5"/>
  <rect x="232" y="340" width="112" height="64" fill="#F0EDE8" stroke="#E5E0DA" stroke-width="1.5"/>
  <text x="288" y="368" text-anchor="middle" font-family="JetBrains Mono, ui-monospace, monospace" font-size="12" fill="#B0ACA6">shard-7</text>
  <line x1="480" y1="184" x2="416" y2="340" stroke="#B0ACA6" stroke-width="1.5"/>
  <rect x="360" y="340" width="112" height="64" fill="#F0EDE8" stroke="#E5E0DA" stroke-width="1.5"/>
  <text x="416" y="368" text-anchor="middle" font-family="JetBrains Mono, ui-monospace, monospace" font-size="12" fill="#B0ACA6">shard-8</text>
  <line x1="480" y1="184" x2="544" y2="340" stroke="#B0ACA6" stroke-width="1.5"/>
  <rect x="488" y="340" width="112" height="64" fill="#F0EDE8" stroke="#E5E0DA" stroke-width="1.5"/>
  <text x="544" y="368" text-anchor="middle" font-family="JetBrains Mono, ui-monospace, monospace" font-size="12" fill="#B0ACA6">shard-9</text>
  <line x1="480" y1="184" x2="672" y2="340" stroke="#B0ACA6" stroke-width="1.5"/>
  <rect x="616" y="340" width="112" height="64" fill="#F0EDE8" stroke="#E5E0DA" stroke-width="1.5"/>
  <text x="672" y="368" text-anchor="middle" font-family="JetBrains Mono, ui-monospace, monospace" font-size="12" fill="#B0ACA6">shard-10</text>
  <line x1="480" y1="184" x2="800" y2="340" stroke="#B0ACA6" stroke-width="1.5"/>
  <rect x="744" y="340" width="112" height="64" fill="#F0EDE8" stroke="#E5E0DA" stroke-width="1.5"/>
  <text x="800" y="368" text-anchor="middle" font-family="JetBrains Mono, ui-monospace, monospace" font-size="12" fill="#B0ACA6">shard-11</text>
</svg>
