<?xml version="1.0" encoding="UTF-8"?>
<!DOCTYPE svg PUBLIC "-//W3C//DTD SVG 1.1//EN" "http://www.w3.org/Graphics/SVG/1.1/DTD/svg11.dtd">
<!-- Creator: CorelDRAW -->
<svg xmlns="http://www.w3.org/2000/svg" xml:space="preserve" width="2048px" height="2048px" style="shape-rendering:geometricPrecision; text-rendering:geometricPrecision; image-rendering:optimizeQuality; fill-rule:evenodd; clip-rule:evenodd"
viewBox="0 0 2048 2048"
 xmlns:xlink="http://www.w3.org/1999/xlink">
 <defs>
  <style type="text/css">
   <![CDATA[
    .fil5 {fill:none}
    .fil0 {fill:#393939;fill-rule:nonzero}
    .fil4 {fill:#757575;fill-rule:nonzero}
    .fil2 {fill:#7E7E7E;fill-rule:nonzero}
    .fil1 {fill:#CBCBCC;fill-rule:nonzero}
    .fil3 {fill:#F6F6F6;fill-rule:nonzero}
   ]]>
  </style>
 </defs>
 <g id="Layer_x0020_1">
  <metadata id="CorelCorpID_0Corel-Layer"/>
  <g id="_582956256">
   <path id="_582970128" class="fil0" d="M1030.27 849.413l-71.3445 0 -598.199 0c-28.8378,0 -55.0264,11.7732 -73.9902,30.737 -18.9638,18.9638 -30.737,45.1524 -30.737,73.9902l0 488.729c0,28.8355 11.7732,55.0276 30.737,73.9914 18.965,18.9626 45.1559,30.7359 73.9902,30.7359l1326.55 0c28.8355,0 55.0252,-11.7732 73.989,-30.7382 18.965,-18.9638 30.7382,-45.1524 30.7382,-73.989l0 -488.729c0,-28.8343 -11.7732,-55.0252 -30.737,-73.9902 -18.9638,-18.9638 -45.1559,-30.737 -73.9902,-30.737l-657.003 0z"/>
   <polygon id="_582974136" class="fil1" points="760.47,1349.09 1287.53,1349.09 1287.53,1424.39 760.47,1424.39 "/>
   <polygon id="_582974400" class="fil2" points="1588.71,1160.86 1664,1160.86 1664,1236.15 1588.71,1236.15 "/>
   <polygon id="_582964200" class="fil2" points="1438.12,1160.86 1513.41,1160.86 1513.41,1236.15 1438.12,1236.15 "/>
   <polygon id="_582984000" class="fil3" points="1287.53,1160.86 1362.82,1160.86 1362.82,1236.15 1287.53,1236.15 "/>
   <polygon id="_582965160" class="fil2" points="1136.94,1160.86 1212.23,1160.86 1212.23,1236.15 1136.94,1236.15 "/>
   <polygon id="_582962064" class="fil2" points="986.352,1160.86 1061.65,1160.86 1061.65,1236.15 986.352,1236.15 "/>
   <polygon id="_582985224" class="fil2" points="835.763,1160.86 911.058,1160.86 911.058,1236.15 835.763,1236.15 "/>
   <polygon id="_582972072" class="fil3" points="685.175,1160.86 760.47,1160.86 760.47,1236.15 685.175,1236.15 "/>
   <polygon id="_582970704" class="fil3" points="534.586,1160.86 609.882,1160.86 609.882,1236.15 534.586,1236.15 "/>
   <polygon id="_582959376" class="fil2" points="383.998,1160.86 459.293,1160.86 459.293,1236.15 383.998,1236.15 "/>
   <polygon id="_582986184" class="fil2" points="1588.71,972.62 1664,972.62 1664,1047.91 1588.71,1047.91 "/>
   <polygon id="_582974904" class="fil3" points="1438.12,972.62 1513.41,972.62 1513.41,1047.91 1438.12,1047.91 "/>
   <polygon id="_582960288" class="fil2" points="1287.53,972.62 1362.82,972.62 1362.82,1047.91 1287.53,1047.91 "/>
   <polygon id="_582957888" class="fil2" points="1136.94,972.62 1212.23,972.62 1212.23,1047.91 1136.94,1047.91 "/>
   <polygon id="_582958704" class="fil2" points="986.352,972.62 1061.65,972.62 1061.65,1047.91 986.352,1047.91 "/>
   <polygon id="_582975960" class="fil2" points="835.763,972.62 911.058,972.62 911.058,1047.91 835.763,1047.91 "/>
   <polygon id="_582966576" class="fil3" points="685.175,972.62 760.47,972.62 760.47,1047.91 685.175,1047.91 "/>
   <polygon id="_582954480" class="fil3" points="534.586,972.62 609.882,972.62 609.882,1047.91 534.586,1047.91 "/>
   <polygon id="_582983040" class="fil2" points="383.998,972.62 459.293,972.62 459.293,1047.91 383.998,1047.91 "/>
   <path id="_582958128" class="fil4" d="M1030.27 849.413c29.0693,-124.703 122.296,-148.254 209.038,-170.14 85.1292,-21.4807 165.256,-41.7 201.01,-131.087 7.15394,-17.8477 -1.51654,-38.1189 -19.3642,-45.2729 -17.8477,-7.15394 -38.1201,1.51654 -45.2729,19.3642 -22.5473,56.3693 -85.9371,72.3662 -153.282,89.3587 -111.478,28.1268 -231.616,58.4729 -263.472,237.777l71.3445 0z"/>
  </g>
  <rect class="fil5" width="2048" height="2048"/>
  <rect class="fil5" x="255.999" y="255.999" width="1536" height="1536"/>
 </g>
</svg>
